<svg width="139" height="212" viewBox="0 0 139 212" fill="none" xmlns="http://www.w3.org/2000/svg">
<path d="M57.9908 82.6834C53.3302 80.5028 48.3467 78.918 43.1367 78.0156C42.4968 79.1725 41.7493 80.7284 41.2339 81.9662C35.6955 81.1333 30.208 81.1333 24.7715 81.9662C24.2562 80.7284 23.4917 79.1725 22.8461 78.0156C17.6304 78.918 12.6413 80.5086 7.98058 82.695C-1.42007 96.9006 -3.96843 110.753 -2.69425 124.409C3.54076 129.066 9.58323 131.894 15.5237 133.745C16.9905 131.726 18.2986 129.58 19.4255 127.319C17.2793 126.503 15.2236 125.497 13.2812 124.328C13.7965 123.947 14.3006 123.548 14.7875 123.137C26.6346 128.678 39.5067 128.678 51.2122 123.137C51.7049 123.548 52.2089 123.947 52.7185 124.328C50.7704 125.503 48.7091 126.509 46.5629 127.325C47.6898 129.58 48.9923 131.732 50.4647 133.751C56.4109 131.9 62.459 129.071 68.694 124.409C70.189 108.579 66.14 94.853 57.9908 82.6834ZM21.0395 116.011C17.4832 116.011 14.5667 112.691 14.5667 108.648C14.5667 104.605 17.4209 101.279 21.0395 101.279C24.6583 101.279 27.5747 104.599 27.5124 108.648C27.518 112.691 24.6583 116.011 21.0395 116.011ZM44.9602 116.011C41.4039 116.011 38.4874 112.691 38.4874 108.648C38.4874 104.605 41.3415 101.279 44.9602 101.279C48.5789 101.279 51.4954 104.599 51.4331 108.648C51.4331 112.691 48.5789 116.011 44.9602 116.011Z" fill="white" fill-opacity="0.3"/>
<g filter="url(#filter0_f_13_894)">
<circle cx="33" cy="106" r="36" fill="white"/>
</g>
<defs>
<filter id="filter0_f_13_894" x="-72.8" y="0.199997" width="211.6" height="211.6" filterUnits="userSpaceOnUse" color-interpolation-filters="sRGB">
<feFlood flood-opacity="0" result="BackgroundImageFix"/>
<feBlend mode="normal" in="SourceGraphic" in2="BackgroundImageFix" result="shape"/>
<feGaussianBlur stdDeviation="34.9" result="effect1_foregroundBlur_13_894"/>
</filter>
</defs>
</svg>
